<svg width="24" height="24" viewBox="0 0 24 24" fill="none" xmlns="http://www.w3.org/2000/svg">
<path d="M7.73438 18.6562C7.73438 18.5625 7.64062 18.4688 7.5 18.4688C7.35938 18.4688 7.26562 18.5625 7.26562 18.6562C7.26562 18.75 7.35938 18.8438 7.5 18.7969C7.64062 18.7969 7.73438 18.75 7.73438 18.6562ZM6.28125 18.4219C6.28125 18.5156 6.375 18.6562 6.51562 18.6562C6.60938 18.7031 6.75 18.6562 6.79688 18.5625C6.79688 18.4688 6.75 18.375 6.60938 18.3281C6.46875 18.2812 6.32812 18.3281 6.28125 18.4219ZM8.39062 18.375C8.25 18.375 8.15625 18.4688 8.15625 18.6094C8.15625 18.7031 8.29688 18.75 8.4375 18.7031C8.57812 18.6562 8.67188 18.6094 8.625 18.5156C8.625 18.4219 8.48438 18.3281 8.39062 18.375ZM11.4375 0.375C4.96875 0.375 0 5.34375 0 11.8125C0 17.0156 3.23438 21.4688 7.92188 23.0625C8.53125 23.1562 8.71875 22.7812 8.71875 22.5C8.71875 22.1719 8.71875 20.5781 8.71875 19.5938C8.71875 19.5938 5.4375 20.2969 4.73438 18.1875C4.73438 18.1875 4.21875 16.8281 3.46875 16.5C3.46875 16.5 2.39062 15.75 3.51562 15.75C3.51562 15.75 4.6875 15.8438 5.34375 16.9688C6.375 18.7969 8.0625 18.2812 8.76562 17.9531C8.85938 17.2031 9.14062 16.6875 9.51562 16.3594C6.89062 16.0781 4.21875 15.7031 4.21875 11.2031C4.21875 9.89062 4.59375 9.28125 5.34375 8.4375C5.20312 8.10938 4.82812 6.89062 5.48438 5.25C6.42188 4.96875 8.71875 6.51562 8.71875 6.51562C9.65625 6.23438 10.6406 6.14062 11.625 6.14062C12.6562 6.14062 13.6406 6.23438 14.5781 6.51562C14.5781 6.51562 16.8281 4.92188 17.8125 5.25C18.4688 6.89062 18.0469 8.10938 17.9531 8.4375C18.7031 9.28125 19.1719 9.89062 19.1719 11.2031C19.1719 15.7031 16.4062 16.0781 13.7812 16.3594C14.2031 16.7344 14.5781 17.4375 14.5781 18.5625C14.5781 20.1094 14.5312 22.0781 14.5312 22.4531C14.5312 22.7812 14.7656 23.1562 15.375 23.0156C20.0625 21.4688 23.25 17.0156 23.25 11.8125C23.25 5.34375 17.9531 0.375 11.4375 0.375ZM4.54688 16.5469C4.45312 16.5938 4.5 16.7344 4.54688 16.8281C4.64062 16.875 4.73438 16.9219 4.82812 16.875C4.875 16.8281 4.875 16.6875 4.78125 16.5938C4.6875 16.5469 4.59375 16.5 4.54688 16.5469ZM4.03125 16.1719C3.98438 16.2656 4.03125 16.3125 4.125 16.3594C4.21875 16.4062 4.3125 16.4062 4.35938 16.3125C4.35938 16.2656 4.3125 16.2188 4.21875 16.1719C4.125 16.125 4.07812 16.125 4.03125 16.1719ZM5.53125 17.8594C5.48438 17.9062 5.48438 18.0469 5.625 18.1406C5.71875 18.2344 5.85938 18.2812 5.90625 18.1875C5.95312 18.1406 5.95312 18 5.85938 17.9062C5.76562 17.8125 5.625 17.7656 5.53125 17.8594ZM5.01562 17.1562C4.92188 17.2031 4.92188 17.3438 5.01562 17.4375C5.10938 17.5312 5.20312 17.5781 5.29688 17.5312C5.34375 17.4844 5.34375 17.3438 5.29688 17.25C5.20312 17.1562 5.10938 17.1094 5.01562 17.1562Z" fill="#5D5C66"/>
</svg>
