<svg width="72" height="64" viewBox="0 0 72 64" fill="none" xmlns="http://www.w3.org/2000/svg">
<path d="M17.8896 16.9818C17.8896 15.5339 19.0999 14.3586 20.5919 14.3586H51.7505C53.243 14.3586 54.4527 15.5339 54.4527 16.9818V48.3564C54.4527 49.8047 53.243 50.9792 51.7505 50.9792H20.5919C19.1001 50.9792 17.8896 49.8049 17.8896 48.3568V16.9814V16.9818Z" fill="#0A66C2"/>
<path d="M28.9729 44.9997V28.5143H23.5011V44.9997H28.9735H28.9729ZM26.2382 26.2639C28.1459 26.2639 29.3336 24.998 29.3336 23.416C29.2979 21.7979 28.1459 20.5674 26.2744 20.5674C24.4017 20.5674 23.1786 21.798 23.1786 23.4159C23.1786 24.9979 24.3659 26.2638 26.2023 26.2638H26.2377L26.2382 26.2639ZM32.0016 44.9997H37.473V35.7945C37.473 35.3025 37.5087 34.8091 37.6532 34.4577C38.0486 33.4729 38.9489 32.4534 40.4608 32.4534C42.4402 32.4534 43.2325 33.9651 43.2325 36.1814V44.9997H48.7038V35.5475C48.7038 30.4841 46.0047 28.1279 42.4048 28.1279C39.4534 28.1279 38.1571 29.7798 37.437 30.9049H37.4734V28.5149H32.0019C32.0733 30.0614 32.0015 45.0003 32.0015 45.0003L32.0016 44.9997Z" fill="white"/>
<path d="M58.4911 37.2887C58.4911 35.453 58.7158 34.1418 59.1651 33.3551C59.6145 32.5309 60.4383 32.0814 61.6366 32.0065V31.8941C60.4383 31.8191 59.6145 31.3696 59.1651 30.5454C58.7158 29.6838 58.4911 28.3726 58.4911 26.6118V13.4623C58.4911 12.301 58.2477 11.4768 57.7609 10.9898C57.2741 10.5028 56.4503 10.2593 55.2894 10.2593H53.155C52.5558 10.2593 52.1627 10.1656 51.9754 9.9783C51.8256 9.75352 51.7507 9.34143 51.7507 8.74202V7H57.6486C59.5958 7 60.9626 7.41209 61.7489 8.23628C62.5728 9.023 62.9847 10.3904 62.9847 12.3385V27.1737C62.9847 27.8855 63.0221 28.4475 63.097 28.8596C63.1719 29.2717 63.3217 29.5901 63.5464 29.8149C63.8085 30.0397 64.1455 30.1895 64.5574 30.2644C65.0068 30.3019 65.5685 30.3206 66.2425 30.3206H67.4221C68.0587 30.3206 68.4519 30.4517 68.6016 30.714C68.7889 30.9388 68.8825 31.3509 68.8825 31.9503C68.8825 32.5497 68.7889 32.9805 68.6016 33.2427C68.4519 33.505 68.0587 33.6174 67.4221 33.5799H66.2987C65.6247 33.5799 65.063 33.5986 64.6136 33.6361C64.2017 33.6735 63.8647 33.8047 63.6025 34.0294C63.3779 34.2168 63.2094 34.5352 63.097 34.9847C63.0221 35.3968 62.9847 35.9775 62.9847 36.7268V51.5621C62.9847 53.5101 62.5728 54.8775 61.7489 55.6642C60.9626 56.4884 59.5958 56.9005 57.6486 56.9005H51.7507V55.1585C51.7507 54.5591 51.8256 54.147 51.9754 53.9222C52.1627 53.7349 52.5558 53.6413 53.155 53.6413H55.2894C56.4503 53.6413 57.2741 53.3977 57.7609 52.9107C58.2477 52.4237 58.4911 51.5995 58.4911 50.4382V37.2887Z" fill="#111111"/>
<path d="M13.3914 50.4382C13.3914 51.5995 13.6348 52.4237 14.1216 52.9107C14.6084 53.3977 15.4322 53.6413 16.5931 53.6413H18.7275C19.3266 53.6413 19.7011 53.7349 19.8509 53.9222C20.0381 54.147 20.1317 54.5591 20.1317 55.1585V56.9005H14.2339C12.2867 56.9005 10.9012 56.4884 10.0774 55.6642C9.291 54.8775 8.89781 53.5101 8.89781 51.5621V36.7268C8.89781 35.9775 8.84165 35.3968 8.72931 34.9847C8.65441 34.5352 8.4859 34.2168 8.22378 34.0294C7.9991 33.8047 7.66208 33.6735 7.21273 33.6361C6.80081 33.5986 6.25784 33.5799 5.5838 33.5799H4.46041C3.82382 33.6174 3.41191 33.505 3.22468 33.2427C3.07489 32.9805 3 32.5497 3 31.9503C3 31.3509 3.07489 30.9388 3.22468 30.714C3.41191 30.4517 3.82382 30.3206 4.46041 30.3206H5.63997C6.31401 30.3206 6.85698 30.3019 7.26889 30.2644C7.71825 30.1895 8.05527 30.0397 8.27995 29.8149C8.54207 29.5901 8.71058 29.2717 8.78548 28.8596C8.86037 28.4475 8.89781 27.8855 8.89781 27.1737V12.3385C8.89781 10.3904 9.291 9.023 10.0774 8.23628C10.9012 7.41209 12.2867 7 14.2339 7H20.1317V8.74202C20.1317 9.34143 20.0381 9.75352 19.8509 9.9783C19.7011 10.1656 19.3266 10.2593 18.7275 10.2593H16.5931C15.4322 10.2593 14.6084 10.5028 14.1216 10.9898C13.6348 11.4768 13.3914 12.301 13.3914 13.4623V26.6118C13.3914 28.3726 13.1667 29.6838 12.7174 30.5454C12.268 31.3696 11.4442 31.8191 10.2459 31.8941V32.0065C11.4442 32.0814 12.268 32.5309 12.7174 33.3551C13.1667 34.1418 13.3914 35.453 13.3914 37.2887V50.4382Z" fill="#111111"/>
</svg>
